<svg id="visual" viewBox="0 0 890 440" width="890" height="440" xmlns="http://www.w3.org/2000/svg" xmlns:xlink="http://www.w3.org/1999/xlink" version="1.1"><rect x="0" y="0" width="890" height="440" fill="#001220"></rect><defs><linearGradient id="grad1_0" x1="50.6%" y1="100%" x2="100%" y2="0%"><stop offset="9.545454545454543%" stop-color="#001220" stop-opacity="1"></stop><stop offset="90.45454545454545%" stop-color="#001220" stop-opacity="1"></stop></linearGradient></defs><defs><linearGradient id="grad2_0" x1="0%" y1="100%" x2="49.4%" y2="0%"><stop offset="9.545454545454543%" stop-color="#001220" stop-opacity="1"></stop><stop offset="90.45454545454545%" stop-color="#001220" stop-opacity="1"></stop></linearGradient></defs><g transform="translate(890, 440)"><path d="M-154 0C-139 -13 -124 -26 -113.2 -36.8C-102.4 -47.6 -95.8 -56.1 -89.8 -65.2C-83.8 -74.4 -78.3 -84 -72.3 -99.5C-66.3 -115 -59.7 -136.4 -47.6 -146.5C-35.4 -156.5 -17.7 -155.3 0 -154L0 0Z" fill="#fba400"></path></g><g transform="translate(0, 0)"><path d="M154 0C157.4 19.6 160.8 39.3 146.5 47.6C132.1 55.9 99.9 52.9 89.8 65.2C79.7 77.6 91.7 105.4 87.6 120.5C83.5 135.7 63.3 138.2 46 141.7C28.8 145.2 14.4 149.6 0 154L0 0Z" fill="#fba400"></path></g></svg>